<mxfile host="app.diagrams.net" agent="Mozilla/5.0 (Macintosh; Intel Mac OS X 10_15_7) AppleWebKit/537.36 (KHTML, like Gecko) Chrome/136.0.0.0 Safari/537.36" version="27.0.9">
  <diagram name="Page-1" id="JntVAdGJVKhrkGMVg9V-">
    <mxGraphModel grid="1" page="1" gridSize="10" guides="1" tooltips="1" connect="1" arrows="1" fold="1" pageScale="1" pageWidth="850" pageHeight="1100" math="0" shadow="0">
      <root>
        <mxCell id="0" />
        <mxCell id="1" parent="0" />
        <mxCell id="W8-vzGq-EH7mcyE8-KKW-1" value="" style="ellipse;whiteSpace=wrap;html=1;aspect=fixed;" vertex="1" parent="1">
          <mxGeometry x="320" y="320" width="160" height="160" as="geometry" />
        </mxCell>
        <mxCell id="W8-vzGq-EH7mcyE8-KKW-3" value="" style="shape=sumEllipse;perimeter=ellipsePerimeter;whiteSpace=wrap;html=1;backgroundOutline=1;" vertex="1" parent="1">
          <mxGeometry x="160" y="70" width="30" height="30" as="geometry" />
        </mxCell>
        <mxCell id="W8-vzGq-EH7mcyE8-KKW-2" value="" style="endArrow=none;html=1;rounded=0;entryX=1;entryY=0;entryDx=0;entryDy=0;exitX=0.502;exitY=0.5;exitDx=0;exitDy=0;exitPerimeter=0;" edge="1" parent="1" source="W8-vzGq-EH7mcyE8-KKW-3" target="W8-vzGq-EH7mcyE8-KKW-1">
          <mxGeometry width="50" height="50" relative="1" as="geometry">
            <mxPoint x="180" y="80" as="sourcePoint" />
            <mxPoint x="450" y="400" as="targetPoint" />
          </mxGeometry>
        </mxCell>
        <mxCell id="W8-vzGq-EH7mcyE8-KKW-4" value="" style="endArrow=none;html=1;strokeWidth=1;rounded=0;exitX=1;exitY=0;exitDx=0;exitDy=0;" edge="1" parent="1" source="W8-vzGq-EH7mcyE8-KKW-1">
          <mxGeometry width="50" height="50" relative="1" as="geometry">
            <mxPoint x="550" y="280" as="sourcePoint" />
            <mxPoint x="400" y="400" as="targetPoint" />
          </mxGeometry>
        </mxCell>
        <mxCell id="W8-vzGq-EH7mcyE8-KKW-6" value="" style="endArrow=none;html=1;strokeWidth=1;rounded=0;entryX=1;entryY=0;entryDx=0;entryDy=0;" edge="1" parent="1" target="W8-vzGq-EH7mcyE8-KKW-1">
          <mxGeometry width="50" height="50" relative="1" as="geometry">
            <mxPoint x="399" y="345" as="sourcePoint" />
            <mxPoint x="490" y="320" as="targetPoint" />
          </mxGeometry>
        </mxCell>
        <mxCell id="W8-vzGq-EH7mcyE8-KKW-9" value="" style="endArrow=none;html=1;strokeWidth=1;rounded=0;entryX=1;entryY=0;entryDx=0;entryDy=0;" edge="1" parent="1" target="W8-vzGq-EH7mcyE8-KKW-1">
          <mxGeometry width="50" height="50" relative="1" as="geometry">
            <mxPoint x="457" y="400" as="sourcePoint" />
            <mxPoint x="457" y="343" as="targetPoint" />
          </mxGeometry>
        </mxCell>
        <mxCell id="W8-vzGq-EH7mcyE8-KKW-10" value="" style="endArrow=none;dashed=1;html=1;dashPattern=1 3;strokeWidth=1;rounded=0;exitX=0.5;exitY=0;exitDx=0;exitDy=0;" edge="1" parent="1" source="W8-vzGq-EH7mcyE8-KKW-1">
          <mxGeometry width="50" height="50" relative="1" as="geometry">
            <mxPoint x="410" y="290" as="sourcePoint" />
            <mxPoint x="400" y="480" as="targetPoint" />
          </mxGeometry>
        </mxCell>
        <mxCell id="W8-vzGq-EH7mcyE8-KKW-11" value="" style="endArrow=none;dashed=1;html=1;dashPattern=1 3;strokeWidth=1;rounded=0;exitX=1;exitY=0.5;exitDx=0;exitDy=0;entryX=0;entryY=0.5;entryDx=0;entryDy=0;" edge="1" parent="1" source="W8-vzGq-EH7mcyE8-KKW-1" target="W8-vzGq-EH7mcyE8-KKW-1">
          <mxGeometry width="50" height="50" relative="1" as="geometry">
            <mxPoint x="250" y="340" as="sourcePoint" />
            <mxPoint x="250" y="500" as="targetPoint" />
          </mxGeometry>
        </mxCell>
        <mxCell id="W8-vzGq-EH7mcyE8-KKW-12" value="r" style="text;html=1;align=center;verticalAlign=middle;whiteSpace=wrap;rounded=0;" vertex="1" parent="1">
          <mxGeometry x="395" y="350" width="60" height="30" as="geometry" />
        </mxCell>
        <mxCell id="W8-vzGq-EH7mcyE8-KKW-13" value="q" style="text;html=1;align=center;verticalAlign=middle;whiteSpace=wrap;rounded=0;" vertex="1" parent="1">
          <mxGeometry x="390" y="320" width="60" height="30" as="geometry" />
        </mxCell>
        <mxCell id="W8-vzGq-EH7mcyE8-KKW-14" value="q" style="text;html=1;align=center;verticalAlign=middle;whiteSpace=wrap;rounded=0;" vertex="1" parent="1">
          <mxGeometry x="433" y="360" width="60" height="30" as="geometry" />
        </mxCell>
        <mxCell id="W8-vzGq-EH7mcyE8-KKW-15" value="(pulley)" style="text;html=1;align=center;verticalAlign=middle;whiteSpace=wrap;rounded=0;" vertex="1" parent="1">
          <mxGeometry x="340" y="430" width="60" height="30" as="geometry" />
        </mxCell>
      </root>
    </mxGraphModel>
  </diagram>
</mxfile>
